<svg width="28" height="28" viewBox="0 0 28 28" fill="none" xmlns="http://www.w3.org/2000/svg">
<path d="M27.3334 16C27.3334 18.3467 25.6 20.2933 23.3334 20.6133V24.6667C23.3334 25.3739 23.0524 26.0522 22.5523 26.5523C22.0522 27.0524 21.3739 27.3333 20.6667 27.3333H15.6V26.9333C15.6 25.9786 15.2207 25.0629 14.5456 24.3878C13.8705 23.7126 12.9548 23.3333 12 23.3333C10 23.3333 8.40002 24.9467 8.40002 26.9333V27.3333H3.33335C2.62611 27.3333 1.94783 27.0524 1.44774 26.5523C0.947638 26.0522 0.666687 25.3739 0.666687 24.6667V19.6H1.06669C3.05335 19.6 4.66669 18 4.66669 16C4.66669 14 3.05335 12.4 1.06669 12.4H0.666687V7.33334C0.666687 6.62609 0.947638 5.94782 1.44774 5.44772C1.94783 4.94762 2.62611 4.66667 3.33335 4.66667H7.38669C7.70669 2.4 9.65335 0.666672 12 0.666672C14.3467 0.666672 16.2934 2.4 16.6134 4.66667H20.6667C21.3739 4.66667 22.0522 4.94762 22.5523 5.44772C23.0524 5.94782 23.3334 6.62609 23.3334 7.33334V11.3867C25.6 11.7067 27.3334 13.6533 27.3334 16ZM20.6667 18H22.6667C23.1971 18 23.7058 17.7893 24.0809 17.4142C24.456 17.0391 24.6667 16.5304 24.6667 16C24.6667 15.4696 24.456 14.9609 24.0809 14.5858C23.7058 14.2107 23.1971 14 22.6667 14H20.6667V7.33334H14V5.33334C14 4.80291 13.7893 4.2942 13.4142 3.91912C13.0392 3.54405 12.5305 3.33334 12 3.33334C11.4696 3.33334 10.9609 3.54405 10.5858 3.91912C10.2107 4.2942 10 4.80291 10 5.33334V7.33334H3.33335V10.16C5.68002 11.0667 7.33335 13.3333 7.33335 16C7.33335 18.6667 5.66669 20.9333 3.33335 21.84V24.6667H6.16002C7.06669 22.3333 9.33335 20.6667 12 20.6667C14.6667 20.6667 16.9334 22.3333 17.84 24.6667H20.6667V18Z" fill="#C2C2C2"/>
</svg>
