<svg width="27" height="28" viewBox="0 0 27 28" fill="none" xmlns="http://www.w3.org/2000/svg">
<path d="M3.73333 11.6333L7.26667 13.1333C7.66667 12.3333 8.09444 11.5444 8.55 10.7667C9.00556 9.98889 9.48889 9.24444 10 8.53333L7.36667 8L3.73333 11.6333ZM8.86667 14.3333L13.3 18.7667C14.5667 18.1889 15.7556 17.5333 16.8667 16.8C17.9778 16.0667 18.8778 15.3556 19.5667 14.6667C21.3667 12.8667 22.6889 11.0222 23.5333 9.13333C24.3778 7.24444 24.8333 5.11111 24.9 2.73333C22.5222 2.8 20.3889 3.25555 18.5 4.1C16.6111 4.94444 14.7667 6.26667 12.9667 8.06667C12.2778 8.75556 11.5667 9.65555 10.8333 10.7667C10.1 11.8778 9.44444 13.0667 8.86667 14.3333ZM16.5 11.1333C16.0556 10.6889 15.8333 10.1389 15.8333 9.48333C15.8333 8.82778 16.0556 8.27778 16.5 7.83333C16.9444 7.38889 17.4944 7.16667 18.15 7.16667C18.8056 7.16667 19.3556 7.38889 19.8 7.83333C20.2444 8.27778 20.4667 8.82778 20.4667 9.48333C20.4667 10.1389 20.2444 10.6889 19.8 11.1333C19.3556 11.5778 18.8056 11.8 18.15 11.8C17.4944 11.8 16.9444 11.5778 16.5 11.1333ZM16 23.9L19.6333 20.2667L19.1 17.6333C18.3889 18.1444 17.6444 18.6278 16.8667 19.0833C16.0889 19.5389 15.3 19.9667 14.5 20.3667L16 23.9ZM26.8667 0.766665C27.0667 3.78889 26.6889 6.54444 25.7333 9.03333C24.7778 11.5222 23.2 13.8667 21 16.0667L20.9333 16.1333L20.8667 16.2L21.6 19.8667C21.6667 20.2 21.65 20.5222 21.55 20.8333C21.45 21.1444 21.2778 21.4222 21.0333 21.6667L15.3333 27.4L12.5 20.8L6.83333 15.1333L0.233333 12.3L5.96667 6.6C6.21111 6.35555 6.48889 6.18333 6.8 6.08333C7.11111 5.98333 7.43333 5.96667 7.76667 6.03333L11.4333 6.76667C11.4556 6.74444 11.4778 6.72778 11.5 6.71667C11.5222 6.70555 11.5444 6.68889 11.5667 6.66667C13.7667 4.46667 16.1111 2.88333 18.6 1.91667C21.0889 0.949998 23.8444 0.566665 26.8667 0.766665ZM2.46667 19.1667C3.24444 18.3889 4.19444 17.9944 5.31667 17.9833C6.43889 17.9722 7.38889 18.3556 8.16667 19.1333C8.94444 19.9111 9.32778 20.8611 9.31667 21.9833C9.30556 23.1056 8.91111 24.0556 8.13333 24.8333C7.55555 25.4111 6.66111 25.8889 5.45 26.2667C4.23889 26.6444 2.42222 27 0 27.3333C0.333333 24.9111 0.683333 23.0889 1.05 21.8667C1.41667 20.6444 1.88889 19.7444 2.46667 19.1667ZM3.86667 20.6C3.55556 20.9333 3.27778 21.4556 3.03333 22.1667C2.78889 22.8778 2.57778 23.7889 2.4 24.9C3.51111 24.7222 4.42222 24.5111 5.13333 24.2667C5.84444 24.0222 6.36667 23.7444 6.7 23.4333C7.12222 23.0556 7.33889 22.5833 7.35 22.0167C7.36111 21.45 7.16667 20.9556 6.76667 20.5333C6.34444 20.1333 5.85 19.9389 5.28333 19.95C4.71667 19.9611 4.24444 20.1778 3.86667 20.6Z" fill="#C2C2C2"/>
</svg>
